<svg width="34" height="34" viewBox="0 0 34 34" fill="none" xmlns="http://www.w3.org/2000/svg">
  <g clip-path="url(#clip0)">
    <path
      d="M21.7573 11.6973H21.6412C22.0508 11.5396 22.342 11.141 22.342 10.6756V6.87377C22.342 6.27042 21.8547 5.78096 21.2514 5.77877L18.1131 5.76562C14.1492 5.76562 12.7432 8.65097 12.7432 11.1213V11.6973C12.1552 11.717 11.6843 12.1999 11.6843 12.7923V17.0267C11.6843 17.6202 12.1552 18.102 12.7432 18.1217V27.6121C12.7432 28.2165 13.2338 28.7071 13.8382 28.7071H18.0726C18.677 28.7071 19.1676 28.2165 19.1676 27.6121V18.1217H21.3861C21.9544 18.1217 22.4274 17.6881 22.4756 17.123L22.8479 12.8886C22.8742 12.582 22.7713 12.2798 22.5643 12.0532C22.3574 11.8265 22.0639 11.6973 21.7573 11.6973ZM20.3831 15.9317H18.0726C17.4681 15.9317 16.9776 16.4222 16.9776 17.0267V26.5171H14.9332V17.0267C14.9332 16.4332 14.4624 15.9514 13.8743 15.9317V13.8873C14.4624 13.8676 14.9332 13.3847 14.9332 12.7923V11.1224C14.9332 9.93979 15.3471 7.95673 18.1087 7.95673L20.152 7.96549V9.57844L19.0537 9.57187C17.0772 9.57187 16.9776 11.0403 16.9776 11.3348V12.7923C16.9776 13.3967 17.4681 13.8873 18.0726 13.8873H20.5626L20.3831 15.9317Z"
      fill="white"/>
    <path
      d="M25.144 0.0546875H8.87881C3.75856 0.0546875 0.0410156 3.77333 0.0410156 8.89577V25.1599C0.0410156 30.2812 3.75747 33.9999 8.87881 33.9999H25.144C30.2676 33.9999 33.9862 30.2812 33.9862 25.1599V8.89577C33.9862 3.77333 30.2676 0.0546875 25.144 0.0546875ZM31.7962 25.1599C31.7962 29.0746 29.0609 31.8099 25.144 31.8099H8.87881C4.96526 31.8099 2.23103 29.0756 2.23103 25.1599V8.89577C2.23103 4.98003 4.96526 2.2447 8.87881 2.2447H25.144C29.0609 2.2447 31.7962 4.98003 31.7962 8.89577V25.1599Z"
      fill="white"/>
  </g>
  <defs>
    <clipPath id="clip0">
      <rect width="33.9452" height="33.9452" fill="white" transform="translate(0.0410156 0.0546875)"/>
    </clipPath>
  </defs>
</svg>
