<svg width="34" height="34" viewBox="0 0 34 34" fill="none" xmlns="http://www.w3.org/2000/svg">
  <g clip-path="url(#clip0)">
    <path
      d="M21.7573 11.6672H21.6412C22.0508 11.5093 22.342 11.1102 22.342 10.6442V6.83718C22.342 6.23302 21.8547 5.74289 21.2514 5.7407L18.1131 5.72754C14.1492 5.72754 12.7432 8.61677 12.7432 11.0904V11.6672C12.1552 11.6869 11.6843 12.1705 11.6843 12.7637V17.0037C11.6843 17.598 12.1552 18.0805 12.7432 18.1002V27.6034C12.7432 28.2087 13.2338 28.6999 13.8382 28.6999H18.0726C18.677 28.6999 19.1676 28.2087 19.1676 27.6034V18.1002H21.3861C21.9544 18.1002 22.4274 17.666 22.4756 17.1002L22.8479 12.8601C22.8742 12.5531 22.7713 12.2505 22.5643 12.0235C22.3574 11.7966 22.0639 11.6672 21.7573 11.6672ZM20.3831 15.9073H18.0726C17.4681 15.9073 16.9776 16.3985 16.9776 17.0037V26.5069H14.9332V17.0037C14.9332 16.4095 14.4624 15.927 13.8743 15.9073V13.8601C14.4624 13.8404 14.9332 13.3569 14.9332 12.7637V11.0915C14.9332 9.90732 15.3471 7.9216 18.1087 7.9216L20.152 7.93037V9.54548L19.0537 9.53891C17.0772 9.53891 16.9776 11.0093 16.9776 11.3042V12.7637C16.9776 13.3689 17.4681 13.8601 18.0726 13.8601H20.5626L20.3831 15.9073Z"
      fill="black"/>
    <path
      d="M25.144 0.0090332H8.87881C3.75856 0.0090332 0.0410156 3.73268 0.0410156 8.86202V25.1481C0.0410156 30.2763 3.75747 33.9999 8.87881 33.9999H25.144C30.2676 33.9999 33.9862 30.2763 33.9862 25.1481V8.86202C33.9862 3.73268 30.2676 0.0090332 25.144 0.0090332ZM31.7962 25.1481C31.7962 29.068 29.0609 31.807 25.144 31.807H8.87881C4.96526 31.807 2.23103 29.0691 2.23103 25.1481V8.86202C2.23103 4.941 4.96526 2.20199 8.87881 2.20199H25.144C29.0609 2.20199 31.7962 4.941 31.7962 8.86202V25.1481Z"
      fill="black"/>
  </g>
  <defs>
    <clipPath id="clip0">
      <rect width="33.9452" height="33.9909" fill="white" transform="translate(0.0410156 0.0090332)"/>
    </clipPath>
  </defs>
</svg>
