<svg width="35" height="34" viewBox="0 0 35 34" fill="none" xmlns="http://www.w3.org/2000/svg">
  <g clip-path="url(#clip0)">
    <path
      d="M24.9744 0.0090332H9.76461C4.59943 0.0090332 0.397217 4.21711 0.397217 9.38924V24.6195C0.397217 29.7919 4.59943 33.9997 9.76461 33.9997H24.9744C30.14 33.9997 34.3422 29.7917 34.3422 24.6195V9.38924C34.3424 4.21711 30.14 0.0090332 24.9744 0.0090332ZM31.3307 24.6195C31.3307 28.1289 28.4793 30.9839 24.9746 30.9839H9.76461C6.26012 30.9841 3.40898 28.1289 3.40898 24.6195V9.38924C3.40898 5.88003 6.26012 3.02485 9.76461 3.02485H24.9744C28.4791 3.02485 31.3305 5.88003 31.3305 9.38924V24.6195H31.3307Z"
      fill="black"/>
    <path
      d="M17.3698 8.24561C12.5468 8.24561 8.62305 12.1746 8.62305 17.0041C8.62305 21.8335 12.5468 25.7623 17.3698 25.7623C22.1929 25.7623 26.1166 21.8335 26.1166 17.0041C26.1166 12.1746 22.1929 8.24561 17.3698 8.24561ZM17.3698 22.7463C14.2077 22.7463 11.6348 20.1704 11.6348 17.0039C11.6348 13.8373 14.2075 11.2612 17.3698 11.2612C20.5322 11.2612 23.1048 13.8373 23.1048 17.0039C23.1048 20.1704 20.532 22.7463 17.3698 22.7463Z"
      fill="black"/>
    <path
      d="M26.4833 5.68848C25.903 5.68848 25.333 5.92371 24.9232 6.33587C24.5114 6.74602 24.2747 7.31702 24.2747 7.90008C24.2747 8.48133 24.5116 9.05212 24.9232 9.46428C25.3328 9.87443 25.903 10.1117 26.4833 10.1117C27.0656 10.1117 27.6338 9.87443 28.0454 9.46428C28.457 9.05212 28.6919 8.48113 28.6919 7.90008C28.6919 7.31702 28.457 6.74602 28.0454 6.33587C27.6358 5.92371 27.0656 5.68848 26.4833 5.68848Z"
      fill="black"/>
  </g>
  <defs>
    <clipPath id="clip0">
      <rect width="33.9452" height="33.9909" fill="white" transform="translate(0.397217 0.0090332)"/>
    </clipPath>
  </defs>
</svg>
