<svg width="35" height="34" viewBox="0 0 35 34" fill="none" xmlns="http://www.w3.org/2000/svg">
  <g clip-path="url(#clip0)">
    <path
      d="M24.9744 0.0546875H9.76461C4.59943 0.0546875 0.397217 4.2571 0.397217 9.42228V24.6321C0.397217 29.7975 4.59943 33.9997 9.76461 33.9997H24.9744C30.14 33.9997 34.3422 29.7973 34.3422 24.6321V9.42228C34.3424 4.2571 30.14 0.0546875 24.9744 0.0546875ZM31.3307 24.6321C31.3307 28.1368 28.4793 30.9879 24.9746 30.9879H9.76461C6.26012 30.9881 3.40898 28.1368 3.40898 24.6321V9.42228C3.40898 5.91779 6.26012 3.06645 9.76461 3.06645H24.9744C28.4791 3.06645 31.3305 5.91779 31.3305 9.42228V24.6321H31.3307Z"
      fill="white"/>
    <path
      d="M17.3698 8.28027C12.5468 8.28027 8.62305 12.204 8.62305 17.027C8.62305 21.8499 12.5468 25.7734 17.3698 25.7734C22.1929 25.7734 26.1166 21.8499 26.1166 17.027C26.1166 12.204 22.1929 8.28027 17.3698 8.28027ZM17.3698 22.7614C14.2077 22.7614 11.6348 20.189 11.6348 17.0268C11.6348 13.8645 14.2075 11.2918 17.3698 11.2918C20.5322 11.2918 23.1048 13.8645 23.1048 17.0268C23.1048 20.189 20.532 22.7614 17.3698 22.7614Z"
      fill="white"/>
    <path
      d="M26.4833 5.72656C25.903 5.72656 25.333 5.96148 24.9232 6.37309C24.5114 6.78269 24.2747 7.35292 24.2747 7.93519C24.2747 8.51566 24.5116 9.08568 24.9232 9.49729C25.3328 9.90689 25.903 10.1438 26.4833 10.1438C27.0656 10.1438 27.6338 9.90689 28.0454 9.49729C28.457 9.08568 28.6919 8.51546 28.6919 7.93519C28.6919 7.35292 28.457 6.78269 28.0454 6.37309C27.6358 5.96148 27.0656 5.72656 26.4833 5.72656Z"
      fill="white"/>
  </g>
  <defs>
    <clipPath id="clip0">
      <rect width="33.9452" height="33.9452" fill="white" transform="translate(0.397217 0.0546875)"/>
    </clipPath>
  </defs>
</svg>
