<svg width="118" height="91" viewBox="0 0 118 91" fill="none" xmlns="http://www.w3.org/2000/svg">
  <path
    d="M7.83369 53.4082L5.9356 48.436L4.30418 43.7335H4.11362V59.267H0V32.4401H3.99944L6.87519 40.0719L8.95117 45.8919H9.14147L11.2744 39.9176L14.1313 32.4401H18.0924V59.267H13.9788V43.8105H13.8265L12.1568 48.5901L10.2967 53.4082H7.83369ZM31.4619 59.267L30.4335 53.6781H25.5579C25.3803 54.6032 25.2089 55.5347 25.0437 56.4724C24.8787 57.4104 24.72 58.3418 24.5675 59.267H20.3778C21.2667 54.7701 22.1552 50.299 23.0441 45.8534C23.9329 41.4082 24.8215 36.937 25.7104 32.4401H30.281L35.6516 59.267H31.4619L31.4619 59.267ZM27.8814 38.6458C27.6274 40.4958 27.361 42.3396 27.0816 44.1768C26.8022 46.014 26.4975 47.8834 26.1673 49.7851H29.7859L28.0719 38.6458H27.8814H27.8814ZM44.2216 32.2087C45.3135 32.2087 46.2531 32.3631 47.0402 32.6649C47.8273 32.9733 48.4813 33.3972 49.0017 33.9432C49.5224 34.4893 49.9032 35.1446 50.1446 35.8963C50.3856 36.6477 50.5063 37.4765 50.5063 38.3759L46.5071 39.4166C46.5071 38.4401 46.3227 37.6436 45.961 37.0269C45.5929 36.4101 45.0088 36.1017 44.2025 36.1017C43.7263 36.1017 43.3328 36.2047 43.0345 36.4101C42.7298 36.6158 42.495 36.8791 42.3298 37.2003C42.1711 37.5215 42.0569 37.8747 41.9934 38.2473C41.93 38.6201 41.8982 38.9733 41.8982 39.3074V52.9392C41.8982 53.1962 41.9235 53.479 41.9743 53.7873C42.025 54.102 42.133 54.391 42.2917 54.6609C42.4569 54.9307 42.6853 55.1556 42.9773 55.3356C43.2632 55.5153 43.6375 55.6052 44.0883 55.6052C45.5991 55.6052 46.3673 54.5003 46.3927 52.2905C47.0783 52.4189 47.7639 52.5281 48.4495 52.618C49.1351 52.7081 49.8207 52.8043 50.5063 52.9073C50.4555 54.9373 49.9033 56.5432 48.8495 57.7254C47.7957 58.9073 46.2404 59.4984 44.1836 59.4984C41.9997 59.4984 40.3874 58.9395 39.3463 57.8215C38.3052 56.7038 37.7846 55.0657 37.7846 52.9073V39.5322C37.7846 38.53 37.8925 37.5857 38.1085 36.6994C38.3241 35.8127 38.6861 35.0353 39.1938 34.3672C39.7018 33.6991 40.3683 33.1724 41.1937 32.787C42.0188 32.4016 43.0281 32.2088 44.2217 32.2088L44.2216 32.2087ZM73.7026 32.4401V59.267H53.4773V32.4401H57.5909V55.374H61.5139V32.4401H65.6275V55.374H69.5889V32.4401H73.7025H73.7026ZM84.1388 36.333V59.267H80.0252V36.333H75.7591V32.4401H88.4047V36.333H84.1388H84.1388ZM98.5748 59.267L97.5464 53.6781H92.6708C92.4932 54.6032 92.3218 55.5347 92.1566 56.4724C91.9917 57.4104 91.833 58.3418 91.6805 59.267H87.4907C88.3796 54.7701 89.2682 50.2989 90.157 45.8534C91.0459 41.4082 91.9345 36.937 92.8233 32.4401H97.3939L102.765 59.267H98.5748L98.5748 59.267ZM94.9943 38.6458C94.7403 40.4958 94.4739 42.3396 94.1945 44.1768C93.9152 46.014 93.6104 47.8834 93.2803 49.7851H96.8989L95.1849 38.6458H94.9943H94.9943ZM109.202 55.3355H110.75C110.954 55.3355 111.131 55.297 111.277 55.2197C112.388 55.117 113.125 54.6737 113.493 53.89C113.855 53.1063 114.039 52.1233 114.039 50.9413C114.039 49.4767 113.791 48.4038 113.303 47.7228C112.814 47.0419 111.938 46.7015 110.674 46.7015H109.202V55.3355ZM109.202 42.8086H110.947C112.312 42.8086 113.442 42.9949 114.337 43.3674C115.239 43.74 115.956 44.2667 116.502 44.9605C117.048 45.6543 117.429 46.5024 117.657 47.498C117.886 48.5002 118 49.6308 118 50.8834C118 53.6781 117.429 55.7723 116.286 57.1727C115.143 58.5666 113.379 59.267 110.992 59.267H105.088V32.4401H116.705V36.333H109.202V42.8086Z"
    fill="black"/>
  <path fill-rule="evenodd" clip-rule="evenodd"
        d="M102.688 28.1172H100.639V2.87611H74.6875V0.802246H102.688V28.1172L102.688 28.1172ZM102.688 63.6084H100.639V88.8495H74.6875V90.9233H102.688V63.6084L102.688 63.6084ZM13.9788 63.5902H16.0281V88.8495H41.9797V90.9052H13.9788V63.5903L13.9788 63.5902ZM13.9788 28.1172H16.0281V2.87611H41.9797V0.802246H13.9788V28.1172L13.9788 28.1172Z"
        fill="black"/>
  <path
    d="M24.9692 77.1155V71.8771H26.7526C27.155 71.8771 27.4623 71.9015 27.6744 71.9515C27.9708 72.021 28.2238 72.1466 28.4335 72.3271C28.707 72.5612 28.9106 72.8587 29.0456 73.2221C29.1817 73.5854 29.2492 74.0012 29.2492 74.4683C29.2492 74.8658 29.2034 75.2182 29.1119 75.5254C29.0203 75.8327 28.9022 76.0876 28.7588 76.2888C28.6142 76.49 28.4576 76.6485 28.2865 76.7631C28.1166 76.8789 27.9105 76.9667 27.6695 77.0265C27.4273 77.0862 27.1502 77.1155 26.8369 77.1155H24.9692V77.1155ZM25.6561 76.5009H26.7598C27.1008 76.5009 27.3683 76.4692 27.5623 76.4046C27.7563 76.34 27.9105 76.2497 28.0262 76.1327C28.1877 75.9681 28.3142 75.7461 28.4045 75.4681C28.4949 75.1901 28.5407 74.8536 28.5407 74.4573C28.5407 73.9086 28.4515 73.4867 28.2744 73.1916C28.0973 72.8965 27.8816 72.699 27.6274 72.599C27.4442 72.527 27.149 72.4917 26.7417 72.4917H25.6561V76.5009V76.5009ZM38.2393 77.1155V71.8771H41.9771V72.4917H38.9261V74.1012H41.7819V74.7158H38.9261V76.5009H42.1V77.1155H38.2393V77.1155ZM50.8575 75.4328L51.501 75.3742C51.5311 75.6376 51.6022 75.8534 51.7142 76.0229C51.8263 76.1912 51.9998 76.3278 52.2348 76.4326C52.4697 76.5363 52.7348 76.5887 53.0288 76.5887C53.2903 76.5887 53.5205 76.5497 53.7205 76.4704C53.9205 76.3912 54.0687 76.2827 54.1663 76.1449C54.2639 76.0071 54.3133 75.8571 54.3133 75.6961C54.3133 75.5328 54.2663 75.3901 54.1723 75.2669C54.0783 75.145 53.9229 75.0426 53.706 74.9584C53.5674 74.9048 53.2602 74.8194 52.7842 74.7036C52.3083 74.5877 51.9757 74.4792 51.7853 74.3768C51.5383 74.2451 51.3551 74.0817 51.2347 73.8878C51.113 73.694 51.0527 73.4757 51.0527 73.2355C51.0527 72.9697 51.1274 72.7221 51.2756 72.4929C51.4238 72.2624 51.6395 72.0881 51.9251 71.9686C52.2095 71.8491 52.5264 71.7893 52.8746 71.7893C53.2578 71.7893 53.5964 71.8515 53.8892 71.9771C54.182 72.1015 54.4073 72.2856 54.5651 72.5295C54.723 72.7721 54.8073 73.0477 54.8194 73.355L54.1615 73.4062C54.1265 73.0757 54.0072 72.8258 53.8036 72.6575C53.6 72.488 53.2987 72.4039 52.9011 72.4039C52.4866 72.4039 52.1842 72.4807 51.995 72.6343C51.8058 72.788 51.7106 72.9733 51.7106 73.1904C51.7106 73.3781 51.7781 73.533 51.9118 73.6549C52.0444 73.7756 52.3878 73.9012 52.9445 74.0281C53.5012 74.1561 53.8831 74.2671 54.0904 74.3622C54.3904 74.5024 54.6133 74.6792 54.7567 74.895C54.9001 75.1096 54.9712 75.3572 54.9712 75.6376C54.9712 75.9168 54.8929 76.1778 54.735 76.4241C54.5772 76.6704 54.3519 76.8619 54.0566 76.9984C53.7614 77.135 53.4301 77.2033 53.0602 77.2033C52.5926 77.2033 52.201 77.1338 51.8853 76.996C51.5684 76.8582 51.3214 76.6509 51.1419 76.3729C50.9611 76.0961 50.8671 75.7827 50.8575 75.4328ZM64.0541 77.1155V71.8771H64.7409V77.1155H64.0541ZM76.4036 75.0596V74.4451H78.5942V76.3863C78.258 76.657 77.911 76.8619 77.5531 76.9984C77.1952 77.135 76.8277 77.2033 76.4518 77.2033C75.9433 77.2033 75.4818 77.0935 75.0661 76.8728C74.6516 76.6533 74.3371 76.3339 74.1262 75.9181C73.9141 75.501 73.8081 75.0352 73.8081 74.5219C73.8081 74.0122 73.9129 73.5367 74.1238 73.094C74.3347 72.6526 74.6371 72.3246 75.0323 72.1112C75.4275 71.8966 75.883 71.7893 76.3987 71.7893C76.7723 71.7893 77.1109 71.8503 77.4133 71.9734C77.7158 72.0966 77.9531 72.2673 78.1242 72.4856C78.2965 72.705 78.4267 72.9916 78.5158 73.344L77.8977 73.5147C77.8194 73.2489 77.723 73.0392 77.6085 72.8855C77.4928 72.7331 77.329 72.6112 77.1145 72.5197C76.9012 72.4283 76.6638 72.3819 76.4024 72.3819C76.0903 72.3819 75.8204 72.4307 75.5914 72.527C75.3637 72.6234 75.1805 72.7502 75.0396 72.9087C74.8998 73.066 74.7913 73.2391 74.7142 73.4269C74.5829 73.7525 74.5166 74.1037 74.5166 74.4829C74.5166 74.9511 74.5961 75.3425 74.754 75.6583C74.913 75.9729 75.1444 76.207 75.4468 76.3595C75.7505 76.5119 76.0722 76.5887 76.4132 76.5887C76.7096 76.5887 76.9988 76.5302 77.2808 76.4143C77.5627 76.2973 77.776 76.1741 77.9218 76.0412V75.0596H76.4036ZM87.6325 77.1155V71.8771H88.3361L91.0521 75.9888V71.8771H91.71V77.1155H91.0063L88.2904 73.0038V77.1155H87.6325Z"
    fill="black"/>
  <path
    d="M24.689 20.8347L26.6747 15.5964H27.4278L29.5353 20.8347H28.7557L28.1568 19.2471H25.9771L25.4156 20.8347H24.689ZM26.1783 18.6838H27.9423L27.4025 17.2315C27.2398 16.7901 27.1169 16.4255 27.0314 16.1377C26.9603 16.4792 26.8651 16.8145 26.7458 17.1462L26.1783 18.6838ZM31.0975 20.8347V15.5964H33.3917C33.8532 15.5964 34.2038 15.6439 34.4436 15.7378C34.6834 15.8317 34.875 15.9975 35.0184 16.2353C35.1618 16.4731 35.2329 16.7365 35.2329 17.0242C35.2329 17.3961 35.1136 17.7095 34.8762 17.9644C34.6388 18.2192 34.2725 18.3801 33.7761 18.4497C33.958 18.5375 34.0954 18.6253 34.1894 18.7106C34.3894 18.8959 34.5786 19.1288 34.7557 19.4081L35.651 20.8347H34.7955L34.1111 19.7446C33.9122 19.4288 33.7472 19.1886 33.6182 19.0215C33.4881 18.8545 33.3724 18.7387 33.27 18.6716C33.1688 18.6057 33.064 18.5594 32.9579 18.5326C32.8808 18.5167 32.7543 18.5082 32.5772 18.5082H31.7843V20.8347H31.0975V20.8347ZM31.7843 17.9082H33.2543C33.5676 17.9082 33.811 17.8753 33.987 17.8095C34.1629 17.7449 34.2966 17.64 34.387 17.4949C34.4786 17.351 34.5244 17.1949 34.5244 17.0254C34.5244 16.7779 34.4364 16.573 34.2593 16.4133C34.0821 16.2536 33.8026 16.1743 33.4206 16.1743H31.7843V17.9082ZM40.9955 18.9971L41.6823 19.1727C41.539 19.7422 41.2811 20.175 40.9088 20.4738C40.5364 20.7725 40.081 20.9225 39.5423 20.9225C38.9857 20.9225 38.5326 20.8079 38.1832 20.5774C37.8337 20.3482 37.5686 20.0153 37.3867 19.58C37.2047 19.1435 37.1132 18.6764 37.1132 18.1765C37.1132 17.6315 37.2156 17.1559 37.4216 16.7499C37.6277 16.3438 37.9205 16.0353 38.3 15.8244C38.6796 15.6134 39.0977 15.5085 39.5532 15.5085C40.0713 15.5085 40.5063 15.6415 40.8582 15.9085C41.2112 16.1755 41.457 16.5499 41.5956 17.0328L40.9232 17.1937C40.8039 16.8133 40.6292 16.5352 40.4015 16.3621C40.1737 16.1877 39.887 16.1012 39.5411 16.1012C39.1447 16.1012 38.8122 16.1975 38.5459 16.3901C38.2796 16.5828 38.0916 16.8425 37.9843 17.1669C37.8759 17.4924 37.8217 17.8278 37.8217 18.1728C37.8217 18.6179 37.8855 19.0069 38.0133 19.3386C38.141 19.6714 38.3398 19.919 38.6097 20.0836C38.8796 20.2482 39.1712 20.3299 39.4857 20.3299C39.8689 20.3299 40.1918 20.2177 40.4569 19.9946C40.722 19.7702 40.9015 19.4385 40.9955 18.9971ZM43.5627 20.8347V15.5964H44.2495V17.7546H46.9245V15.5964H47.6113V20.8347H46.9245V18.3692H44.2495V20.8347H43.5627ZM49.8748 20.8347V15.5964H50.5616V20.8347H49.8748ZM54.0879 20.8347V16.2109H52.3817V15.5964H56.4809V16.2109H54.7747V20.8347H54.0879H54.0879ZM58.207 20.8347V15.5964H61.9447V16.2109H58.8938V17.8205H61.7495V18.435H58.8938V20.2202H62.0676V20.8347H58.207V20.8347ZM67.7062 18.9971L68.393 19.1727C68.2496 19.7422 67.9918 20.175 67.6194 20.4738C67.2471 20.7725 66.7916 20.9225 66.253 20.9225C65.6963 20.9225 65.2433 20.8079 64.8938 20.5774C64.5444 20.3482 64.2793 20.0153 64.0974 19.58C63.9154 19.1435 63.8238 18.6764 63.8238 18.1765C63.8238 17.6315 63.9263 17.1559 64.1323 16.7499C64.3383 16.3438 64.6312 16.0353 65.0107 15.8244C65.3903 15.6134 65.8084 15.5085 66.2639 15.5085C66.782 15.5085 67.217 15.6415 67.5688 15.9085C67.9219 16.1755 68.1677 16.5499 68.3063 17.0328L67.6339 17.1937C67.5146 16.8133 67.3399 16.5352 67.1121 16.3621C66.8844 16.1877 66.5976 16.1012 66.2518 16.1012C65.8554 16.1012 65.5228 16.1975 65.2565 16.3901C64.9902 16.5828 64.8022 16.8425 64.695 17.1669C64.5866 17.4924 64.5324 17.8278 64.5324 18.1728C64.5324 18.6179 64.5962 19.0069 64.7239 19.3386C64.8517 19.6714 65.0505 19.919 65.3204 20.0836C65.5903 20.2482 65.8819 20.3299 66.1964 20.3299C66.5796 20.3299 66.9025 20.2177 67.1676 19.9946C67.4327 19.7702 67.6122 19.4385 67.7062 18.9971ZM71.5602 20.8347V16.2109H69.854V15.5964H73.9532V16.2109H72.247V20.8347H71.5602H71.5602ZM79.0556 15.5964H79.7424V18.6216C79.7424 19.1483 79.6834 19.5666 79.5665 19.8763C79.4484 20.1848 79.2363 20.4372 78.9303 20.6311C78.623 20.8249 78.2218 20.9225 77.7229 20.9225C77.2397 20.9225 76.8433 20.8384 76.536 20.6689C76.2276 20.4994 76.0083 20.2555 75.8769 19.9348C75.7456 19.6141 75.6793 19.1764 75.6793 18.6216V15.5964H76.3661V18.6204C76.3661 19.0752 76.4083 19.4117 76.4915 19.6263C76.5746 19.8422 76.7168 20.0092 76.9204 20.125C77.1229 20.2421 77.3711 20.3006 77.6639 20.3006C78.1651 20.3006 78.523 20.1848 78.7363 19.9543C78.9496 19.7227 79.0556 19.2788 79.0556 18.6204V15.5964ZM81.9047 20.8347V15.5964H84.1989C84.6604 15.5964 85.0111 15.6439 85.2508 15.7378C85.4906 15.8317 85.6822 15.9975 85.8256 16.2353C85.969 16.4731 86.0401 16.7365 86.0401 17.0242C86.0401 17.3961 85.9208 17.7095 85.6834 17.9644C85.4461 18.2192 85.0798 18.3801 84.5833 18.4497C84.7653 18.5375 84.9026 18.6253 84.9966 18.7106C85.1966 18.8959 85.3858 19.1288 85.5629 19.4081L86.4582 20.8347H85.6027L84.9183 19.7446C84.7195 19.4288 84.5544 19.1886 84.4255 19.0215C84.2953 18.8545 84.1796 18.7387 84.0772 18.6716C83.976 18.6057 83.8712 18.5594 83.7651 18.5326C83.688 18.5167 83.5615 18.5082 83.3844 18.5082H82.5915V20.8347H81.9047V20.8347ZM82.5915 17.9082H84.0616C84.3749 17.9082 84.6182 17.8753 84.7942 17.8095C84.9701 17.7449 85.1038 17.64 85.1942 17.4949C85.2858 17.351 85.3316 17.1949 85.3316 17.0254C85.3316 16.7779 85.2436 16.573 85.0665 16.4133C84.8894 16.2536 84.6098 16.1743 84.2278 16.1743H82.5915V17.9082ZM88.1301 20.8347V15.5964H91.8678V16.2109H88.8169V17.8205H91.6726V18.435H88.8169V20.2202H91.9907V20.8347H88.1301V20.8347Z"
    fill="black"/>
</svg>
