<svg width="118" height="90" viewBox="0 0 118 90" fill="none" xmlns="http://www.w3.org/2000/svg">
  <g clip-path="url(#clip0)">
    <path
      d="M7.83369 52.5352L5.9356 47.5697L4.30418 42.8735H4.11362V58.3861H0V31.5953H3.99944L6.87519 39.2169L8.95117 45.029H9.14147L11.2744 39.0627L14.1313 31.5953H18.0924V58.3861H13.9788V42.9505H13.8265L12.1568 47.7236L10.2967 52.5352H7.83369ZM31.4619 58.3861L30.4335 52.8047H25.5579C25.3803 53.7286 25.2089 54.6588 25.0437 55.5953C24.8787 56.532 24.72 57.4622 24.5675 58.3861H20.3778C21.2667 53.8953 22.1552 49.4301 23.0441 44.9906C23.9329 40.5513 24.8215 36.0861 25.7104 31.5953H30.281L35.6516 58.3861H31.4619L31.4619 58.3861ZM27.8814 37.7927C27.6274 39.6402 27.361 41.4815 27.0816 43.3162C26.8022 45.151 26.4975 47.0179 26.1673 48.917H29.7859L28.0719 37.7927H27.8814H27.8814ZM44.2216 31.3643C45.3135 31.3643 46.2531 31.5184 47.0402 31.8198C47.8273 32.1278 48.4813 32.5511 49.0017 33.0964C49.5224 33.6417 49.9032 34.2961 50.1446 35.0468C50.3856 35.7973 50.5063 36.6249 50.5063 37.5232L46.5071 38.5625C46.5071 37.5873 46.3227 36.7918 45.961 36.1759C45.5929 35.5599 45.0088 35.252 44.2025 35.252C43.7263 35.252 43.3328 35.3548 43.0345 35.5599C42.7298 35.7653 42.495 36.0283 42.3298 36.3491C42.1711 36.6699 42.0569 37.0226 41.9934 37.3947C41.93 37.767 41.8982 38.1197 41.8982 38.4533V52.0669C41.8982 52.3235 41.9235 52.6059 41.9743 52.9138C42.025 53.2281 42.133 53.5167 42.2917 53.7862C42.4569 54.0557 42.6853 54.2802 42.9773 54.46C43.2632 54.6395 43.6375 54.7292 44.0883 54.7292C45.5991 54.7292 46.3673 53.6258 46.3927 51.419C47.0783 51.5472 47.7639 51.6563 48.4495 51.7461C49.1351 51.8361 49.8207 51.9321 50.5063 52.035C50.4555 54.0623 49.9033 55.666 48.8495 56.8466C47.7957 58.0269 46.2404 58.6172 44.1836 58.6172C41.9997 58.6172 40.3874 58.0591 39.3463 56.9426C38.3052 55.8264 37.7846 54.1905 37.7846 52.035V38.6779C37.7846 37.677 37.8925 36.734 38.1085 35.8488C38.3241 34.9634 38.6861 34.187 39.1938 33.5198C39.7018 32.8526 40.3683 32.3266 41.1937 31.9418C42.0188 31.5569 43.0281 31.3643 44.2217 31.3643L44.2216 31.3643ZM73.7026 31.5953V58.3861H53.4773V31.5953H57.5909V54.4984H61.5139V31.5953H65.6275V54.4984H69.5889V31.5953H73.7025H73.7026ZM84.1388 35.483V58.3861H80.0252V35.483H75.7591V31.5953H88.4047V35.483H84.1388H84.1388ZM98.5748 58.3861L97.5464 52.8047H92.6708C92.4932 53.7286 92.3218 54.6588 92.1566 55.5953C91.9917 56.532 91.833 57.4622 91.6805 58.3861H87.4907C88.3796 53.8953 89.2682 49.4301 90.157 44.9906C91.0459 40.5513 91.9345 36.0861 92.8233 31.5953H97.3939L102.765 58.3861H98.5748L98.5748 58.3861ZM94.9943 37.7926C94.7403 39.6402 94.4739 41.4815 94.1945 43.3162C93.9152 45.151 93.6104 47.0179 93.2803 48.917H96.8989L95.1849 37.7926H94.9943H94.9943ZM109.202 54.4599H110.75C110.954 54.4599 111.131 54.4215 111.277 54.3443C112.388 54.2417 113.125 53.799 113.493 53.0164C113.855 52.2338 114.039 51.252 114.039 50.0717C114.039 48.609 113.791 47.5375 113.303 46.8575C112.814 46.1774 111.938 45.8375 110.674 45.8375H109.202V54.4599ZM109.202 41.9498H110.947C112.312 41.9498 113.442 42.1359 114.337 42.508C115.239 42.88 115.956 43.406 116.502 44.0988C117.048 44.7917 117.429 45.6387 117.657 46.633C117.886 47.6338 118 48.7629 118 50.0139C118 52.8047 117.429 54.8961 116.286 56.2947C115.143 57.6867 113.379 58.3861 110.992 58.3861H105.088V31.5953H116.705V35.483H109.202V41.9498Z"
      fill="white"/>
    <path fill-rule="evenodd" clip-rule="evenodd"
          d="M102.688 27.2783H100.639V2.07108H74.6875V0H102.688V27.2783L102.688 27.2783ZM102.688 62.7217H100.639V87.9289H74.6875V89.9999H102.688V62.7217L102.688 62.7217ZM13.9788 62.7036H16.0281V87.9289H41.9797V89.9819H13.9788V62.7036L13.9788 62.7036ZM13.9788 27.2783H16.0281V2.07108H41.9797V0H13.9788V27.2783L13.9788 27.2783Z"
          fill="white"/>
    <path
      d="M24.9692 76.2106V70.9793H26.7526C27.155 70.9793 27.4623 71.0037 27.6744 71.0536C27.9708 71.123 28.2238 71.2484 28.4335 71.4286C28.707 71.6624 28.9106 71.9596 29.0456 72.3224C29.1817 72.6853 29.2492 73.1006 29.2492 73.567C29.2492 73.9639 29.2034 74.3158 29.1119 74.6227C29.0203 74.9296 28.9022 75.1841 28.7588 75.385C28.6142 75.5859 28.4576 75.7442 28.2865 75.8587C28.1166 75.9744 27.9105 76.0621 27.6695 76.1217C27.4273 76.1814 27.1502 76.2106 26.8369 76.2106H24.9692V76.2106ZM25.6561 75.5969H26.7598C27.1008 75.5969 27.3683 75.5652 27.5623 75.5007C27.7563 75.4361 27.9105 75.346 28.0262 75.2291C28.1877 75.0647 28.3142 74.8431 28.4045 74.5655C28.4949 74.2878 28.5407 73.9517 28.5407 73.556C28.5407 73.008 28.4515 72.5867 28.2744 72.292C28.0973 71.9973 27.8816 71.8 27.6274 71.7002C27.4442 71.6283 27.149 71.593 26.7417 71.593H25.6561V75.5969V75.5969ZM38.2393 76.2106V70.9793H41.9771V71.593H38.9261V73.2004H41.7819V73.8141H38.9261V75.5969H42.1V76.2106H38.2393V76.2106ZM50.8575 74.5302L51.501 74.4717C51.5311 74.7347 51.6022 74.9503 51.7142 75.1195C51.8263 75.2876 51.9998 75.424 52.2348 75.5287C52.4697 75.6322 52.7348 75.6846 53.0288 75.6846C53.2903 75.6846 53.5205 75.6456 53.7205 75.5664C53.9205 75.4873 54.0687 75.3789 54.1663 75.2413C54.2639 75.1037 54.3133 74.9539 54.3133 74.7932C54.3133 74.63 54.2663 74.4875 54.1723 74.3645C54.0783 74.2428 53.9229 74.1405 53.706 74.0565C53.5674 74.0029 53.2602 73.9176 52.7842 73.802C52.3083 73.6863 51.9757 73.5779 51.7853 73.4756C51.5383 73.3441 51.3551 73.1809 51.2347 72.9873C51.113 72.7937 51.0527 72.5757 51.0527 72.3358C51.0527 72.0704 51.1274 71.8232 51.2756 71.5942C51.4238 71.3641 51.6395 71.19 51.9251 71.0706C52.2095 70.9513 52.5264 70.8916 52.8746 70.8916C53.2578 70.8916 53.5964 70.9537 53.8892 71.0791C54.182 71.2033 54.4073 71.3872 54.5651 71.6308C54.723 71.8731 54.8073 72.1483 54.8194 72.4552L54.1615 72.5063C54.1265 72.1763 54.0072 71.9267 53.8036 71.7586C53.6 71.5894 53.2987 71.5053 52.9011 71.5053C52.4866 71.5053 52.1842 71.5821 51.995 71.7355C51.8058 71.8889 51.7106 72.074 51.7106 72.2908C51.7106 72.4783 51.7781 72.633 51.9118 72.7547C52.0444 72.8753 52.3878 73.0007 52.9445 73.1273C53.5012 73.2552 53.8831 73.366 54.0904 73.461C54.3904 73.601 54.6133 73.7776 54.7567 73.9931C54.9001 74.2075 54.9712 74.4547 54.9712 74.7347C54.9712 75.0136 54.8929 75.2742 54.735 75.5202C54.5772 75.7661 54.3519 75.9573 54.0566 76.0937C53.7614 76.2301 53.4301 76.2983 53.0602 76.2983C52.5926 76.2983 52.201 76.2289 51.8853 76.0913C51.5684 75.9537 51.3214 75.7467 51.1419 75.469C50.9611 75.1926 50.8671 74.8796 50.8575 74.5302ZM64.0541 76.2106V70.9793H64.7409V76.2106H64.0541ZM76.4036 74.1575V73.5438H78.5942V75.4824C78.258 75.7527 77.911 75.9573 77.5531 76.0937C77.1952 76.2301 76.8277 76.2983 76.4518 76.2983C75.9433 76.2983 75.4818 76.1887 75.0661 75.9683C74.6516 75.7491 74.3371 75.43 74.1262 75.0148C73.9141 74.5983 73.8081 74.1332 73.8081 73.6205C73.8081 73.1115 73.9129 72.6366 74.1238 72.1946C74.3347 71.7538 74.6371 71.4262 75.0323 71.2131C75.4275 70.9988 75.883 70.8916 76.3987 70.8916C76.7723 70.8916 77.1109 70.9525 77.4133 71.0755C77.7158 71.1985 77.9531 71.369 78.1242 71.5869C78.2965 71.8061 78.4267 72.0923 78.5158 72.4442L77.8977 72.6147C77.8194 72.3492 77.723 72.1398 77.6085 71.9863C77.4928 71.8341 77.329 71.7124 77.1145 71.621C76.9012 71.5297 76.6638 71.4834 76.4024 71.4834C76.0903 71.4834 75.8204 71.5321 75.5914 71.6283C75.3637 71.7245 75.1805 71.8512 75.0396 72.0095C74.8998 72.1666 74.7913 72.3395 74.7142 72.527C74.5829 72.8521 74.5166 73.2028 74.5166 73.5816C74.5166 74.0492 74.5961 74.44 74.754 74.7554C74.913 75.0696 75.1444 75.3034 75.4468 75.4556C75.7505 75.6078 76.0722 75.6846 76.4132 75.6846C76.7096 75.6846 76.9988 75.6261 77.2808 75.5104C77.5627 75.3935 77.776 75.2705 77.9218 75.1378V74.1575H76.4036ZM87.6325 76.2106V70.9793H88.3361L91.0521 75.0854V70.9793H91.71V76.2106H91.0063L88.2904 72.1045V76.2106H87.6325Z"
      fill="white"/>
    <path
      d="M24.689 20.0055L26.6747 14.7742H27.4278L29.5353 20.0055H28.7557L28.1568 18.4201H25.9771L25.4156 20.0055H24.689ZM26.1783 17.8575H27.9423L27.4025 16.4072C27.2398 15.9664 27.1169 15.6023 27.0314 15.3149C26.9603 15.6558 26.8651 15.9907 26.7458 16.3219L26.1783 17.8575ZM31.0975 20.0055V14.7742H33.3917C33.8532 14.7742 34.2038 14.8217 34.4436 14.9155C34.6834 15.0092 34.875 15.1748 35.0184 15.4123C35.1618 15.6498 35.2329 15.9128 35.2329 16.2002C35.2329 16.5716 35.1136 16.8845 34.8762 17.139C34.6388 17.3935 34.2725 17.5543 33.7761 17.6237C33.958 17.7114 34.0954 17.799 34.1894 17.8843C34.3894 18.0694 34.5786 18.302 34.7557 18.5808L35.651 20.0055H34.7955L34.1111 18.9169C33.9122 18.6015 33.7472 18.3616 33.6182 18.1948C33.4881 18.028 33.3724 17.9123 33.27 17.8453C33.1688 17.7795 33.064 17.7333 32.9579 17.7065C32.8808 17.6907 32.7543 17.6821 32.5772 17.6821H31.7843V20.0055H31.0975V20.0055ZM31.7843 17.083H33.2543C33.5676 17.083 33.811 17.0501 33.987 16.9844C34.1629 16.9198 34.2966 16.8151 34.387 16.6702C34.4786 16.5265 34.5244 16.3706 34.5244 16.2014C34.5244 15.9542 34.4364 15.7496 34.2593 15.5901C34.0821 15.4306 33.8026 15.3514 33.4206 15.3514H31.7843V17.083ZM40.9955 18.1704L41.6823 18.3458C41.539 18.9145 41.2811 19.3467 40.9088 19.6451C40.5364 19.9434 40.081 20.0932 39.5423 20.0932C38.9857 20.0932 38.5326 19.9787 38.1832 19.7486C37.8337 19.5197 37.5686 19.1872 37.3867 18.7525C37.2047 18.3165 37.1132 17.8502 37.1132 17.3509C37.1132 16.8066 37.2156 16.3317 37.4216 15.9262C37.6277 15.5207 37.9205 15.2126 38.3 15.0019C38.6796 14.7913 39.0977 14.6865 39.5532 14.6865C40.0713 14.6865 40.5063 14.8193 40.8582 15.0859C41.2112 15.3526 41.457 15.7265 41.5956 16.2087L40.9232 16.3694C40.8039 15.9895 40.6292 15.7118 40.4015 15.5389C40.1737 15.3648 39.887 15.2783 39.5411 15.2783C39.1447 15.2783 38.8122 15.3745 38.5459 15.5669C38.2796 15.7593 38.0916 16.0187 37.9843 16.3426C37.8759 16.6678 37.8217 17.0026 37.8217 17.3472C37.8217 17.7917 37.8855 18.1802 38.0133 18.5114C38.141 18.8438 38.3398 19.091 38.6097 19.2554C38.8796 19.4198 39.1712 19.5014 39.4857 19.5014C39.8689 19.5014 40.1918 19.3894 40.4569 19.1665C40.722 18.9425 40.9015 18.6112 40.9955 18.1704ZM43.5627 20.0055V14.7742H44.2495V16.9296H46.9245V14.7742H47.6113V20.0055H46.9245V17.5433H44.2495V20.0055H43.5627ZM49.8748 20.0055V14.7742H50.5616V20.0055H49.8748ZM54.0879 20.0055V15.3879H52.3817V14.7742H56.4809V15.3879H54.7747V20.0055H54.0879H54.0879ZM58.207 20.0055V14.7742H61.9447V15.3879H58.8938V16.9953H61.7495V17.6091H58.8938V19.3918H62.0676V20.0055H58.207V20.0055ZM67.7062 18.1704L68.393 18.3458C68.2496 18.9145 67.9918 19.3467 67.6194 19.6451C67.2471 19.9434 66.7916 20.0932 66.253 20.0932C65.6963 20.0932 65.2433 19.9787 64.8938 19.7486C64.5444 19.5197 64.2793 19.1872 64.0974 18.7525C63.9154 18.3165 63.8238 17.8502 63.8238 17.3509C63.8238 16.8066 63.9263 16.3317 64.1323 15.9262C64.3383 15.5207 64.6312 15.2126 65.0107 15.0019C65.3903 14.7913 65.8084 14.6865 66.2639 14.6865C66.782 14.6865 67.217 14.8193 67.5688 15.0859C67.9219 15.3526 68.1677 15.7265 68.3063 16.2087L67.6339 16.3694C67.5146 15.9895 67.3399 15.7118 67.1121 15.5389C66.8844 15.3648 66.5976 15.2783 66.2518 15.2783C65.8554 15.2783 65.5228 15.3745 65.2565 15.5669C64.9902 15.7593 64.8022 16.0187 64.695 16.3426C64.5866 16.6678 64.5324 17.0026 64.5324 17.3472C64.5324 17.7917 64.5962 18.1802 64.7239 18.5114C64.8517 18.8438 65.0505 19.091 65.3204 19.2554C65.5903 19.4198 65.8819 19.5014 66.1964 19.5014C66.5796 19.5014 66.9025 19.3894 67.1676 19.1665C67.4327 18.9425 67.6122 18.6112 67.7062 18.1704ZM71.5602 20.0055V15.3879H69.854V14.7742H73.9532V15.3879H72.247V20.0055H71.5602H71.5602ZM79.0556 14.7742H79.7424V17.7954C79.7424 18.3214 79.6834 18.7391 79.5665 19.0484C79.4484 19.3565 79.2363 19.6086 78.9303 19.8022C78.623 19.9958 78.2218 20.0932 77.7229 20.0932C77.2397 20.0932 76.8433 20.0092 76.536 19.8399C76.2276 19.6707 76.0083 19.4271 75.8769 19.1068C75.7456 18.7866 75.6793 18.3494 75.6793 17.7954V14.7742H76.3661V17.7942C76.3661 18.2484 76.4083 18.5845 76.4915 18.7988C76.5746 19.0143 76.7168 19.1811 76.9204 19.2968C77.1229 19.4137 77.3711 19.4722 77.6639 19.4722C78.1651 19.4722 78.523 19.3565 78.7363 19.1263C78.9496 18.895 79.0556 18.4517 79.0556 17.7942V14.7742ZM81.9047 20.0055V14.7742H84.1989C84.6604 14.7742 85.0111 14.8217 85.2508 14.9155C85.4906 15.0092 85.6822 15.1748 85.8256 15.4123C85.969 15.6498 86.0401 15.9128 86.0401 16.2002C86.0401 16.5716 85.9208 16.8845 85.6834 17.139C85.4461 17.3935 85.0798 17.5543 84.5833 17.6237C84.7653 17.7114 84.9026 17.799 84.9966 17.8843C85.1966 18.0694 85.3858 18.302 85.5629 18.5808L86.4582 20.0055H85.6027L84.9183 18.9169C84.7195 18.6015 84.5544 18.3616 84.4255 18.1948C84.2953 18.028 84.1796 17.9123 84.0772 17.8453C83.976 17.7795 83.8712 17.7333 83.7651 17.7065C83.688 17.6907 83.5615 17.6821 83.3844 17.6821H82.5915V20.0055H81.9047V20.0055ZM82.5915 17.083H84.0616C84.3749 17.083 84.6182 17.0501 84.7942 16.9844C84.9701 16.9198 85.1038 16.8151 85.1942 16.6702C85.2858 16.5265 85.3316 16.3706 85.3316 16.2014C85.3316 15.9542 85.2436 15.7496 85.0665 15.5901C84.8894 15.4306 84.6098 15.3514 84.2278 15.3514H82.5915V17.083ZM88.1301 20.0055V14.7742H91.8678V15.3879H88.8169V16.9953H91.6726V17.6091H88.8169V19.3918H91.9907V20.0055H88.1301V20.0055Z"
      fill="white"/>
  </g>
  <defs>
    <clipPath id="clip0">
      <rect width="118" height="90" fill="white"/>
    </clipPath>
  </defs>
</svg>
